<svg width="68" height="65" viewBox="0 0 68 65" fill="none" xmlns="http://www.w3.org/2000/svg">
<path d="M0 8.5C0 4.08172 3.58172 0.5 8 0.5H60C64.4183 0.5 68 4.08172 68 8.5V56.5C68 60.9183 64.4183 64.5 60 64.5H8C3.58172 64.5 0 60.9183 0 56.5V8.5Z" fill="#6A5147"/>
<path fill-rule="evenodd" clip-rule="evenodd" d="M10.1428 23.0714C10.1428 22.3613 10.7185 21.7856 11.4285 21.7856C21.6393 21.7856 32.2493 23.9349 42.4111 30.0005C43.8818 29.716 46.3794 29.4185 48.9424 29.3257C51.7001 29.2259 54.8194 29.3482 56.8124 30.1454C57.4717 30.4091 57.7924 31.1574 57.5287 31.8166C57.2649 32.4759 56.5167 32.7966 55.8574 32.5329C54.4218 31.9587 51.8022 31.7953 49.0354 31.8954C47.8729 31.9375 46.7353 32.0236 45.7214 32.1289C48.3412 33.9377 50.9243 36.0256 53.4556 38.4237C53.9711 38.9121 53.9931 39.7258 53.5048 40.2413C53.0164 40.7568 52.2026 40.7788 51.6872 40.2904C38.936 28.2104 24.8711 24.3571 11.4285 24.3571C10.7185 24.3571 10.1428 23.7814 10.1428 23.0714Z" fill="white"/>
<path d="M17.8761 40.9707H26.124L23.2219 35.5798L24.8683 35.4601L22 30.6801L19.1329 35.4601L20.7816 35.5775L17.8761 40.9707ZM26.8625 37.5797L29.008 41.5647C29.1006 41.7367 29.147 41.9297 29.1426 42.125C29.1383 42.3203 29.0834 42.5111 28.9832 42.6788C28.8831 42.8465 28.7412 42.9854 28.5714 43.0818C28.4015 43.1783 28.2096 43.229 28.0143 43.2291H23.1293V48.8752C23.1293 49.1747 23.0103 49.462 22.7985 49.6737C22.5867 49.8855 22.2995 50.0045 22 50.0045C21.7005 50.0045 21.4133 49.8855 21.2016 49.6737C20.9898 49.462 20.8708 49.1747 20.8708 48.8752V43.2291H15.9858C15.7905 43.229 15.5985 43.1783 15.4287 43.0818C15.2589 42.9854 15.1169 42.8465 15.0168 42.6788C14.9167 42.5111 14.8618 42.3203 14.8575 42.125C14.8531 41.9297 14.8995 41.7367 14.9921 41.5647L17.1376 37.5797L16.3246 37.1426C16.1857 36.9632 16.1044 36.7459 16.0913 36.5194C16.0782 36.2929 16.1339 36.0677 16.2512 35.8734L21.0323 27.9045C21.1327 27.7375 21.2746 27.5994 21.4441 27.5035C21.6137 27.4076 21.8052 27.3572 22 27.3572C22.1949 27.3572 22.3864 27.4076 22.5559 27.5035C22.7255 27.5994 22.8674 27.7375 22.9678 27.9045L27.7489 35.8734C27.8654 36.0676 27.9209 36.2924 27.908 36.5186C27.8951 36.7447 27.8145 36.9618 27.6766 37.1415L26.8625 37.5797Z" fill="white"/>
<path fill-rule="evenodd" clip-rule="evenodd" d="M52.5714 11.9286H14.8571C12.9636 11.9286 11.4286 13.4636 11.4286 15.3571V49.6429C11.4286 51.5364 12.9636 53.0714 14.8571 53.0714H52.5714C54.465 53.0714 56 51.5364 56 49.6429V15.3571C56 13.4636 54.465 11.9286 52.5714 11.9286ZM14.8571 8.5C11.07 8.5 8 11.57 8 15.3571V49.6429C8 53.43 11.07 56.5 14.8571 56.5H52.5714C56.3585 56.5 59.4286 53.43 59.4286 49.6429V15.3571C59.4286 11.57 56.3585 8.5 52.5714 8.5H14.8571Z" fill="white"/>
<path d="M39.5942 42.0156C39.4252 41.7952 39.2195 41.6042 39.0286 41.4132C38.5364 40.9725 37.9781 40.6566 37.508 40.1939C36.4135 39.1214 36.1711 37.3511 36.869 35.9922C36.1711 36.1611 35.5614 36.5431 35.0399 36.9618C33.1374 38.4897 32.3881 41.1855 33.2843 43.4994C33.3137 43.5728 33.3431 43.6463 33.3431 43.7418C33.3431 43.9034 33.2329 44.0503 33.086 44.1091C32.917 44.1825 32.7407 44.1385 32.6012 44.0209C32.5595 43.986 32.5246 43.9437 32.4983 43.896C31.6683 42.8456 31.5361 41.3398 32.0943 40.1351C30.8676 41.1341 30.1992 42.8236 30.2946 44.4176C30.3387 44.7849 30.3828 45.1521 30.5077 45.5194C30.6105 45.9602 30.8088 46.4009 31.0292 46.7902C31.8225 48.061 33.1962 48.9719 34.6726 49.1555C36.2446 49.3538 37.9267 49.0673 39.1314 47.9802C40.4756 46.7608 40.9458 44.8069 40.2553 43.1321L40.1598 42.9411C40.0055 42.6032 39.5942 42.0156 39.5942 42.0156ZM37.273 46.6433C37.0673 46.8196 36.7294 47.0106 36.4649 47.084C35.6422 47.3779 34.8195 46.9665 34.3347 46.4817C35.2089 46.276 35.7304 45.6296 35.8846 44.9758C36.0095 44.3882 35.7745 43.9034 35.679 43.3378C35.5908 42.7942 35.6055 42.3314 35.8038 41.8246C35.9434 42.1037 36.0903 42.3829 36.2666 42.6032C36.8322 43.3378 37.721 43.661 37.912 44.66C37.9414 44.7628 37.9561 44.8657 37.9561 44.9758C37.9781 45.5782 37.7137 46.2393 37.273 46.6433Z" fill="white"/>
</svg>
