<svg width="68" height="65" viewBox="0 0 68 65" fill="none" xmlns="http://www.w3.org/2000/svg">
<path d="M0 8.5C0 4.08172 3.58172 0.5 8 0.5H60C64.4183 0.5 68 4.08172 68 8.5V56.5C68 60.9183 64.4183 64.5 60 64.5H8C3.58172 64.5 0 60.9183 0 56.5V8.5Z" fill="#6A5147"/>
<path fill-rule="evenodd" clip-rule="evenodd" d="M20.0488 20.0244C20.0488 19.4628 20.5041 19.0076 21.0657 19.0076C29.1412 19.0076 37.5325 20.7074 45.5692 25.5045C46.7325 25.2796 48.7078 25.0443 50.7347 24.9709C52.9158 24.8919 55.3828 24.9887 56.959 25.6192C57.4805 25.8277 57.7341 26.4195 57.5255 26.9409C57.3169 27.4623 56.7252 27.716 56.2037 27.5074C55.0684 27.0533 52.9965 26.924 50.8083 27.0032C49.8889 27.0365 48.9892 27.1046 48.1873 27.1879C50.2593 28.6185 52.3022 30.2697 54.3042 32.1663C54.7119 32.5526 54.7293 33.1962 54.3431 33.6039C53.9568 34.0115 53.3132 34.0289 52.9056 33.6427C42.8209 24.0888 31.6972 21.0413 21.0657 21.0413C20.5041 21.0413 20.0488 20.586 20.0488 20.0244Z" fill="white"/>
<path d="M26.1635 34.1805H32.6866L30.3914 29.917L31.6935 29.8223L29.425 26.0419L27.1575 29.8223L28.4614 29.9152L26.1635 34.1805ZM33.2707 31.4986L34.9675 34.6503C35.0407 34.7863 35.0774 34.939 35.074 35.0934C35.0706 35.2479 35.0271 35.3988 34.948 35.5314C34.8688 35.6641 34.7565 35.7739 34.6222 35.8502C34.4879 35.9265 34.3361 35.9666 34.1816 35.9667H30.3181V40.4321C30.3181 40.669 30.224 40.8961 30.0566 41.0636C29.8891 41.2311 29.6619 41.3252 29.425 41.3252C29.1882 41.3252 28.961 41.2311 28.7935 41.0636C28.6261 40.8961 28.532 40.669 28.532 40.4321V35.9667H24.6685C24.514 35.9666 24.3622 35.9265 24.2279 35.8502C24.0936 35.7739 23.9813 35.6641 23.9021 35.5314C23.823 35.3988 23.7795 35.2479 23.7761 35.0934C23.7727 34.939 23.8094 34.7863 23.8826 34.6503L25.5794 31.4986L24.9364 31.153C24.8266 31.011 24.7623 30.8392 24.7519 30.6601C24.7416 30.4809 24.7857 30.3028 24.8784 30.1492L28.6597 23.8467C28.7391 23.7146 28.8513 23.6054 28.9854 23.5295C29.1195 23.4537 29.271 23.4138 29.425 23.4138C29.5791 23.4138 29.7306 23.4537 29.8647 23.5295C29.9988 23.6054 30.111 23.7146 30.1904 23.8467L33.9717 30.1492C34.0639 30.3028 34.1077 30.4806 34.0975 30.6594C34.0873 30.8383 34.0236 31.0099 33.9146 31.1521L33.2707 31.4986Z" fill="white"/>
<path fill-rule="evenodd" clip-rule="evenodd" d="M53.6043 11.2116H23.7767C22.2791 11.2116 21.0651 12.4256 21.0651 13.9232V41.0392C21.0651 42.5368 22.2791 43.7508 23.7767 43.7508H53.6043C55.1019 43.7508 56.3159 42.5368 56.3159 41.0392V13.9232C56.3159 12.4256 55.1019 11.2116 53.6043 11.2116ZM23.7767 8.5C20.7816 8.5 18.3535 10.928 18.3535 13.9232V41.0392C18.3535 44.0344 20.7816 46.4624 23.7767 46.4624H53.6043C56.5995 46.4624 59.0275 44.0344 59.0275 41.0392V13.9232C59.0275 10.928 56.5995 8.5 53.6043 8.5H23.7767Z" fill="white"/>
<path d="M43.341 35.007C43.2073 34.8327 43.0447 34.6816 42.8936 34.5306C42.5044 34.182 42.0629 33.9322 41.6911 33.5662C40.8254 32.718 40.6337 31.3179 41.1856 30.2432C40.6337 30.3768 40.1515 30.6789 39.7391 31.01C38.2344 32.2184 37.6418 34.3505 38.3506 36.1805C38.3738 36.2386 38.3971 36.2967 38.3971 36.3722C38.3971 36.5 38.3099 36.6162 38.1937 36.6627C38.0601 36.7208 37.9207 36.6859 37.8103 36.593C37.7773 36.5653 37.7498 36.5319 37.729 36.4942C37.0725 35.6634 36.9679 34.4725 37.4095 33.5197C36.4393 34.3098 35.9106 35.646 35.9861 36.9067C36.021 37.1971 36.0558 37.4876 36.1546 37.7781C36.2359 38.1267 36.3928 38.4752 36.5671 38.7831C37.1945 39.7882 38.2809 40.5086 39.4486 40.6538C40.6918 40.8107 42.0222 40.5841 42.975 39.7243C44.0381 38.7599 44.4099 37.2146 43.8638 35.89L43.7883 35.739C43.6663 35.4717 43.341 35.007 43.341 35.007ZM41.5052 38.667C41.3425 38.8064 41.0753 38.9574 40.8661 39.0155C40.2154 39.2479 39.5648 38.9226 39.1814 38.5391C39.8727 38.3765 40.2852 37.8652 40.4072 37.3482C40.5059 36.8834 40.32 36.5 40.2445 36.0527C40.1748 35.6228 40.1864 35.2568 40.3433 34.8559C40.4536 35.0767 40.5698 35.2974 40.7093 35.4717C41.1566 36.0527 41.8595 36.3083 42.0106 37.0984C42.0338 37.1797 42.0454 37.2611 42.0454 37.3482C42.0629 37.8246 41.8537 38.3474 41.5052 38.667Z" fill="white"/>
<path fill-rule="evenodd" clip-rule="evenodd" d="M48.2634 48.7631H18.7371C17.2546 48.7631 16.0529 47.5614 16.0529 46.0789V19.2368H13.3687V46.0789C13.3687 49.0438 15.7722 51.4473 18.7371 51.4473H48.2634V48.7631Z" fill="white"/>
<path fill-rule="evenodd" clip-rule="evenodd" d="M42.8947 54.1315H13.3684C11.886 54.1315 10.6842 52.9298 10.6842 51.4473V24.6052H8V51.4473C8 54.4122 10.4035 56.8158 13.3684 56.8158H42.8947V54.1315Z" fill="white"/>
</svg>
