<svg width="64" height="64" viewBox="0 0 64 64" fill="none" xmlns="http://www.w3.org/2000/svg">
<path d="M0 8C0 3.58172 3.58172 0 8 0H56C60.4183 0 64 3.58172 64 8V56C64 60.4183 60.4183 64 56 64H8C3.58172 64 0 60.4183 0 56V8Z" fill="#FFD51D"/>
<path d="M50.6705 32.159L42.5 28.0715V18.5C42.4999 18.2215 42.4222 17.9486 42.2757 17.7117C42.1292 17.4749 41.9196 17.2835 41.6705 17.159L32.6705 12.659C32.4623 12.555 32.2327 12.5008 32 12.5008C31.7673 12.5008 31.5377 12.555 31.3295 12.659L22.3295 17.159C22.0804 17.2835 21.8708 17.4749 21.7243 17.7117C21.5778 17.9486 21.5001 18.2215 21.5 18.5V28.073L13.3295 32.1575C13.0802 32.2821 12.8705 32.4737 12.7239 32.7108C12.5774 32.948 12.4999 33.2213 12.5 33.5V44C12.4999 44.2787 12.5774 44.552 12.7239 44.7892C12.8705 45.0263 13.0802 45.2179 13.3295 45.3425L22.3295 49.8425C22.5377 49.9465 22.7673 50.0007 23 50.0007C23.2327 50.0007 23.4623 49.9465 23.6705 49.8425L32 45.677L40.3295 49.8425C40.5377 49.9465 40.7673 50.0007 41 50.0007C41.2327 50.0007 41.4623 49.9465 41.6705 49.8425L50.6705 45.3425C50.9198 45.2179 51.1295 45.0263 51.2761 44.7892C51.4226 44.552 51.5001 44.2787 51.5 44V33.5C51.5001 33.2213 51.4226 32.948 51.2761 32.7108C51.1295 32.4737 50.9198 32.2821 50.6705 32.1575M39.5 28.0715L33.5 31.0715V23.9255L39.5 20.9255V28.0715ZM32 15.6755L37.646 18.5L32 21.323L26.354 18.5L32 15.6755ZM24.5 20.9255L30.5 23.9255V31.0715L24.5 28.0715V20.9255ZM21.5 46.073L15.5 43.073V35.927L21.5 38.927V46.073ZM23 36.323L17.354 33.5L23 30.677L28.646 33.5L23 36.323ZM24.5 38.927L30.5 35.927V43.073L24.5 46.073V38.927ZM39.5 46.073L33.5 43.073V35.927L39.5 38.927V46.073ZM41 36.323L35.354 33.5L41 30.677L46.646 33.5L41 36.323ZM48.5 43.073L42.5 46.073V38.927L48.5 35.927V43.073Z" fill="black"/>
</svg>
