<svg width="64" height="64" viewBox="0 0 64 64" fill="none" xmlns="http://www.w3.org/2000/svg">
<rect width="64" height="64" rx="8" fill="#7DD3FC"/>
<rect x="7.33333" y="7.33333" width="49.3333" height="49.3333" rx="8" stroke="black" stroke-width="1.33333"/>
<mask id="mask0_823_2749" style="mask-type:alpha" maskUnits="userSpaceOnUse" x="8" y="8" width="48" height="48">
<rect x="8.33333" y="8.33333" width="47.3333" height="47.3333" rx="7" fill="white" stroke="black" stroke-width="0.666667"/>
</mask>
<g mask="url(#mask0_823_2749)">
<path d="M34.5164 37.8754C35.5527 37.1845 38.1814 36.1481 40.945 36.1481C44.2434 36.1481 47.1631 39.9481 51.654 39.9481C54.4177 39.9481 57.5267 38.6814 58.5631 37.8754L59.7181 31.3118L57.1813 33.0391C56.1449 33.8451 51.9995 35.1118 49.2359 35.1118C43.7086 35.1118 40.5995 31.3118 37.145 31.3118C34.5164 31.3118 32.6541 32.3481 31.6178 33.0391L28.2609 36.4763L31.6178 39.9481L34.5164 37.8754Z" fill="#67E8F9"/>
<path d="M40.945 36.1481C38.1814 36.1481 35.5527 37.1845 34.5164 37.8754V50.677L58.5631 50.9287V37.8754C57.5267 38.6814 54.4177 39.9481 51.654 39.9481C47.1631 39.9481 44.2434 36.1481 40.945 36.1481Z" fill="#06B6D4"/>
<path d="M34.5164 37.8754C35.5527 37.1845 38.1814 36.1481 40.945 36.1481C44.2434 36.1481 47.1631 39.9481 51.654 39.9481C54.4177 39.9481 57.5267 38.6814 58.5631 37.8754M34.5164 37.8754V50.677L58.5631 50.9287V37.8754M34.5164 37.8754L31.6178 39.9481L28.2609 36.4763L31.6178 33.0391C32.6541 32.3481 34.5164 31.3118 37.145 31.3118C40.5995 31.3118 43.7086 35.1118 49.2359 35.1118C51.9995 35.1118 56.1449 33.8451 57.1813 33.0391L59.7181 31.3118L58.5631 37.8754" stroke="black" stroke-width="1.03636" stroke-linecap="round" stroke-linejoin="round"/>
<path d="M6.16064 39.2256C7.00399 38.5807 11.6479 36.9754 14.6513 36.4767C19.611 35.6532 26.9657 35.4721 34.8986 37.3966C36.0319 37.6715 37.1769 37.9894 38.3285 38.3546C43.0552 39.8533 57.1562 46.4277 59.9664 49.5893L60.3923 57.3333H5.51791L6.16064 39.2256Z" fill="#65A30D"/>
<path d="M15.5546 16.0103C14.2655 16.0103 7.62562 25.4637 7.62562 25.4637L5.16663 29.2306L5.51791 38.3546L6.16064 39.2256C7.00399 38.5807 11.6479 36.9754 14.6513 36.4767C14.8804 36.4387 15.1147 36.402 15.3539 36.3668C15.3539 36.3668 19.1042 32.1823 22.3048 29.906C22.3191 29.8958 22.3335 29.8856 22.3478 29.8755L22.2623 29.9331L20.8528 26.1958L20.5767 25.4637C20.5767 25.4637 16.8437 16.0103 15.5546 16.0103Z" fill="#E4E4E7"/>
<path d="M25.4376 20.3073C23.7188 20.3073 20.5767 25.4637 20.5767 25.4637L20.8528 26.1958L22.2623 29.9331L22.3478 29.8755C22.5548 29.7292 22.7594 29.591 22.9604 29.4625C23.1673 29.3304 23.3704 29.2086 23.5685 29.0989C23.7574 28.9944 23.9418 28.9008 24.1205 28.8199C24.4762 28.6588 24.8095 28.5478 25.1114 28.4992C25.2387 28.474 25.3528 28.4619 25.4376 28.4715C25.477 28.4701 25.5261 28.472 25.5842 28.4783C25.9074 28.5076 26.2706 28.6302 26.6618 28.8262C27.0027 28.9906 27.3946 29.2242 27.8203 29.5505C28.6742 30.173 29.5938 31.0086 30.4874 31.905C31.7382 33.0528 32.9215 34.2144 33.3384 34.836C32.3505 32.5467 26.9957 20.3073 25.4376 20.3073Z" fill="#A8A29E"/>
<path d="M35.3771 37.5151C35.3771 37.5151 34.8759 36.8611 34.0845 35.905C34.0203 35.8277 33.8126 35.5789 33.4957 35.2024C33.4406 35.1374 33.3846 35.0716 33.3277 35.0051C32.5079 34.0461 31.5148 32.9354 30.4874 31.905C29.5345 31.0306 28.5425 30.1641 27.8203 29.5505C27.4162 29.2559 27.0268 29.0091 26.6618 28.8262C26.19 28.5987 25.8157 28.5036 25.5842 28.4783C25.5344 28.4738 25.4855 28.4715 25.4376 28.4715C25.3336 28.4715 25.2247 28.481 25.1114 28.4992C24.7747 28.566 24.3456 28.7251 24.1205 28.8199C23.9418 28.9008 23.7574 28.9944 23.5685 29.0989L22.3048 29.906C19.1042 32.1823 15.3539 36.3668 15.3539 36.3668C20.2918 35.641 27.3322 35.561 34.8986 37.3966C35.0579 37.4352 35.2174 37.4747 35.3771 37.5151Z" fill="#86EFAC"/>
<path d="M22.2623 29.9331L20.8528 26.1958L20.5767 25.4637M22.2623 29.9331L22.3478 29.8755M22.2623 29.9331L22.3048 29.906M20.5767 25.4637C20.5767 25.4637 16.8437 16.0103 15.5546 16.0103C14.2655 16.0103 7.62562 25.4637 7.62562 25.4637L5.16663 29.2306L5.51791 38.3546L6.16064 39.2256M20.5767 25.4637C20.5767 25.4637 23.7188 20.3073 25.4376 20.3073C26.9957 20.3073 32.3505 32.5467 33.3384 34.836M33.4957 35.2024C33.8126 35.5789 34.0203 35.8277 34.0845 35.905M33.4957 35.2024C33.4957 35.2024 33.4403 35.0721 33.3384 34.836M33.4957 35.2024C33.5037 35.1236 33.4472 34.9981 33.3384 34.836M33.4957 35.2024C33.4406 35.1374 33.3846 35.0716 33.3277 35.0051M15.3539 36.3668L14.6513 36.4767M15.3539 36.3668C15.1147 36.402 14.8804 36.4387 14.6513 36.4767M15.3539 36.3668C15.3539 36.3668 19.1042 32.1823 22.3048 29.906M15.3539 36.3668C20.2918 35.641 27.3322 35.561 34.8986 37.3966M25.4376 28.4715C25.3528 28.4619 25.2387 28.474 25.1114 28.4992M25.4376 28.4715C25.477 28.4701 25.5261 28.472 25.5842 28.4783M25.4376 28.4715C25.4855 28.4715 25.5344 28.4738 25.5842 28.4783M25.4376 28.4715C25.3336 28.4715 25.2247 28.481 25.1114 28.4992M6.16064 39.2256L5.51791 57.3333H60.3923L59.9664 49.5893C57.1562 46.4277 43.0552 39.8533 38.3285 38.3546C37.1769 37.9894 36.0319 37.6715 34.8986 37.3966M6.16064 39.2256C7.00399 38.5807 11.6479 36.9754 14.6513 36.4767M34.0845 35.905C34.8759 36.8611 35.3771 37.5151 35.3771 37.5151C35.2174 37.4747 35.0579 37.4352 34.8986 37.3966M34.0845 35.905C33.855 35.6276 33.601 35.3248 33.3277 35.0051M22.9604 29.4625L22.3478 29.8755M22.9604 29.4625C22.7594 29.591 22.5548 29.7292 22.3478 29.8755M22.9604 29.4625C23.1673 29.3304 23.3704 29.2086 23.5685 29.0989M14.6513 36.4767C19.611 35.6532 26.9657 35.4721 34.8986 37.3966M22.3478 29.8755C22.3335 29.8856 22.3191 29.8958 22.3048 29.906M23.5685 29.0989C23.7574 28.9944 23.9418 28.9008 24.1205 28.8199M23.5685 29.0989L22.3048 29.906M24.1205 28.8199C24.4762 28.6588 24.8095 28.5478 25.1114 28.4992M24.1205 28.8199C24.3456 28.7251 24.7747 28.566 25.1114 28.4992M27.8203 29.5505C27.3946 29.2242 27.0027 28.9906 26.6618 28.8262M27.8203 29.5505C28.6742 30.173 29.5938 31.0086 30.4874 31.905M27.8203 29.5505C28.5425 30.1641 29.5345 31.0306 30.4874 31.905M27.8203 29.5505C27.4162 29.2559 27.0268 29.0091 26.6618 28.8262M25.5842 28.4783C25.9074 28.5076 26.2706 28.6302 26.6618 28.8262M25.5842 28.4783C25.8157 28.5036 26.19 28.5987 26.6618 28.8262M30.4874 31.905C31.7382 33.0528 32.9215 34.2144 33.3384 34.836M30.4874 31.905C31.5148 32.9354 32.5079 34.0461 33.3277 35.0051" stroke="black" stroke-width="1.05385" stroke-linecap="round" stroke-linejoin="round"/>
<path d="M27.5432 51.1076H33.0439L29.5077 45.9998H31.8652L27.5432 40.1062L23.2212 45.9998H25.5786L22.0425 51.1076H27.5432ZM27.5432 51.1076V54.2509Z" fill="#15803D"/>
<path d="M27.5432 51.1076H33.0439L29.5077 45.9998H31.8652L27.5432 40.1062L23.2212 45.9998H25.5786L22.0425 51.1076H27.5432ZM27.5432 51.1076V54.2509" stroke="black" stroke-width="1.17872" stroke-linecap="round" stroke-linejoin="round"/>
<path d="M16.8112 40.8189V43.9621ZM12.8822 32.5678L16.8112 28.2458L20.7403 32.5678L19.5616 33.7465L22.7048 36.8898L20.7403 37.3448L23.8836 40.8189H9.73889L12.8822 37.3448L10.9176 36.8898L14.0609 33.7465L12.8822 32.5678Z" fill="#059669"/>
<path d="M16.8112 40.8189V43.9621M12.8822 32.5678L16.8112 28.2458L20.7403 32.5678L19.5616 33.7465L22.7048 36.8898L20.7403 37.3448L23.8836 40.8189H9.73889L12.8822 37.3448L10.9176 36.8898L14.0609 33.7465L12.8822 32.5678Z" stroke="black" stroke-width="1.17872" stroke-linecap="round" stroke-linejoin="round"/>
<path d="M47.5892 11.9475C47.8645 11.9475 48.097 11.7147 48.097 11.4397V10.118C48.097 9.83669 47.8645 9.61054 47.5895 9.61054C47.3081 9.61054 47.0757 9.83669 47.0757 10.118V11.44C47.0757 11.715 47.3078 11.9475 47.5892 11.9475ZM44.0361 13.1274C44.2379 13.3294 44.5744 13.3234 44.7637 13.1274C44.9477 12.932 44.9534 12.6139 44.7637 12.4182L43.816 11.4698C43.6203 11.2745 43.3022 11.2805 43.1065 11.4698C42.9108 11.6659 42.9108 11.99 43.1065 12.1917L44.0361 13.1274ZM50.4155 13.1274C50.6052 13.3234 50.9354 13.3294 51.1371 13.1274L52.0668 12.1917C52.2628 11.99 52.2628 11.6659 52.0668 11.4702C51.8711 11.2805 51.5529 11.2745 51.3572 11.4702L50.4152 12.4182C50.2198 12.6139 50.2262 12.9317 50.4155 13.1274ZM38.745 21.9602H45.3629C47.1305 21.9602 48.5007 20.6268 48.5007 18.9019V18.8468C49.7361 18.4493 50.6109 17.3053 50.6109 15.9538C50.6109 14.2718 49.2651 12.92 47.5895 12.92C46.9461 12.9179 46.319 13.1215 45.7996 13.5011C45.2802 13.8808 44.8958 14.4165 44.7025 15.0302C43.9686 14.1985 42.9409 13.7091 41.7788 13.7091C39.7542 13.7091 38.0602 15.2747 37.8585 17.2809C36.8368 17.599 36.1517 18.4861 36.1517 19.5931C36.1517 20.9753 37.1854 21.9602 38.745 21.9602ZM47.5895 13.8189C48.7821 13.8189 49.7117 14.7545 49.7117 15.9535C49.715 16.3852 49.5869 16.8078 49.3444 17.165C49.1018 17.5223 48.7564 17.7973 48.3539 17.9536C47.9625 16.7791 46.8555 15.9595 45.4609 15.8799C45.4977 14.7117 46.4213 13.8189 47.5895 13.8189ZM38.7206 20.9807C37.6808 20.9807 37.1302 20.3876 37.1302 19.6169C37.1302 18.9746 37.5096 18.3995 38.4085 18.161C38.7022 18.0817 38.8125 17.9469 38.8366 17.6412C38.9775 15.9224 40.2497 14.687 41.7788 14.687C42.9653 14.687 43.889 15.3413 44.4577 16.4854C44.5861 16.7483 44.739 16.8339 45.0508 16.8339C46.6291 16.8339 47.5222 17.788 47.5222 18.9257C47.5222 20.0695 46.5923 20.9811 45.3813 20.9811L38.7206 20.9807ZM52.0909 16.4609H53.4122C53.6872 16.4609 53.9137 16.2345 53.9137 15.9531C53.9137 15.6718 53.6872 15.4457 53.4122 15.4457H52.0909C51.8159 15.4457 51.5834 15.6718 51.5834 15.9531C51.5834 16.2345 51.8159 16.4609 52.0909 16.4609ZM51.3572 20.4425C51.5529 20.6382 51.8711 20.6322 52.0668 20.4361C52.2628 20.2408 52.2628 19.9166 52.0668 19.7269L51.1248 18.7849C50.9294 18.5952 50.6109 18.5892 50.4155 18.7849C50.3214 18.8815 50.2687 19.011 50.2687 19.1459C50.2687 19.2807 50.3214 19.4103 50.4155 19.5068L51.3572 20.4425ZM42.4211 26.7413L44.3051 23.4462C44.4152 23.2565 44.3543 23.0424 44.1706 22.9384C43.9873 22.8283 43.7792 22.8895 43.6692 23.0792L41.7788 26.3804C41.6748 26.558 41.7236 26.7718 41.9133 26.8818C41.9995 26.9291 42.1008 26.9409 42.1956 26.9147C42.2903 26.8884 42.3715 26.8262 42.4211 26.7413ZM37.3101 26.7413L39.4361 23.4522C39.5525 23.2625 39.4913 23.0484 39.3077 22.9447C39.1243 22.8343 38.9102 22.8955 38.8002 23.0852L36.6678 26.3804C36.5638 26.558 36.6187 26.7718 36.8083 26.8821C36.8937 26.9292 36.9941 26.9408 37.0879 26.9145C37.1818 26.8881 37.2618 26.8259 37.3101 26.7413ZM44.529 28.1962L46.219 25.1707C46.329 24.9813 46.2678 24.7672 46.0845 24.6568C45.9008 24.5531 45.6931 24.6143 45.583 24.7977L43.8806 27.8413C43.7826 28.0126 43.8318 28.2266 44.0215 28.3367C44.0638 28.3617 44.1108 28.3778 44.1595 28.3842C44.2082 28.3906 44.2577 28.3872 44.3051 28.374C44.3525 28.3609 44.3967 28.3383 44.4352 28.3077C44.4736 28.2771 44.5055 28.2394 44.529 28.1962ZM39.1694 28.7286L41.3503 25.1764C41.4603 24.987 41.4055 24.7729 41.2218 24.6629C41.0321 24.5588 40.8244 24.62 40.7143 24.8037L38.5277 28.374C38.4237 28.5453 38.4786 28.7594 38.6622 28.8695C38.7045 28.8944 38.7515 28.9106 38.8002 28.917C38.8489 28.9235 38.8984 28.92 38.9458 28.9069C38.9931 28.8938 39.0374 28.8713 39.0758 28.8407C39.1143 28.8101 39.1459 28.7718 39.1694 28.7286Z" fill="black"/>
<path d="M38.7206 20.9807C37.6808 20.9807 37.1302 20.3876 37.1302 19.6169C37.1302 18.9746 37.5096 18.3995 38.4085 18.161C38.7022 18.0817 38.8125 17.9469 38.8366 17.6412C38.9775 15.9224 40.2497 14.687 41.7788 14.687C42.9653 14.687 43.889 15.3413 44.4577 16.4854C44.5861 16.7483 44.739 16.8339 45.0508 16.8339C46.6291 16.8339 47.5222 17.788 47.5222 18.9257C47.5222 20.0695 46.5923 20.9811 45.3813 20.9811L38.7206 20.9807Z" fill="#F3F4F6"/>
<path d="M47.5895 13.8189C48.7821 13.8189 49.7117 14.7545 49.7117 15.9535C49.715 16.3852 49.5869 16.8078 49.3444 17.165C49.1018 17.5223 48.7564 17.7973 48.3539 17.9536C47.9625 16.7791 46.8555 15.9595 45.4609 15.8799C45.4977 14.7117 46.4213 13.8189 47.5895 13.8189Z" fill="#FCD34D"/>
<path d="M40.85 24.885C40.9169 24.7733 41.0303 24.7409 41.141 24.799C41.2473 24.863 41.2796 24.9786 41.2152 25.093L39.0345 28.6457H39.0336L39.0297 28.6525C39.0159 28.6779 38.998 28.7003 38.9769 28.717C38.9553 28.7341 38.9303 28.7467 38.9037 28.7541C38.8768 28.7615 38.8483 28.7636 38.8207 28.76C38.7931 28.7563 38.7665 28.7467 38.7426 28.7326C38.6307 28.6648 38.6081 28.5474 38.6635 28.4562L38.6625 28.4553L40.85 24.8869V24.885ZM45.7191 24.8791C45.7869 24.7663 45.8988 24.738 46.0013 24.7932H46.0023C46.1144 24.8606 46.1462 24.9795 46.0814 25.091L46.0804 25.093L44.39 28.1193V28.1203C44.3769 28.1444 44.3585 28.1662 44.3363 28.1838C44.3147 28.201 44.2897 28.2134 44.2631 28.2209C44.2362 28.2283 44.2077 28.2304 44.1801 28.2267C44.1525 28.2231 44.1259 28.2145 44.1019 28.2004L44.101 28.1994C43.9872 28.1333 43.9633 28.0159 44.0179 27.9201L44.0189 27.9191L45.7191 24.8791ZM38.9369 23.1652C39.0057 23.0467 39.1239 23.0189 39.226 23.0803L39.2299 23.0832C39.3355 23.143 39.3693 23.256 39.3021 23.3674L37.1771 26.6555L37.1722 26.6623C37.1447 26.7105 37.0992 26.7467 37.0453 26.7619C37.0051 26.7732 36.9625 26.7724 36.9232 26.76L36.8851 26.7434C36.7724 26.676 36.7473 26.5611 36.8031 26.4631L38.933 23.1711L38.9369 23.1652ZM43.9359 23.049C43.9799 23.0365 44.0329 23.0406 44.0892 23.0744L44.0922 23.0764C44.1988 23.1368 44.234 23.253 44.1683 23.3664L44.1674 23.3674L42.2845 26.6613C42.256 26.7102 42.2087 26.7466 42.1537 26.7619C42.1126 26.7733 42.0688 26.7726 42.0287 26.76L41.9896 26.7424C41.8805 26.677 41.8554 26.5626 41.9154 26.4601L41.9164 26.4592L43.806 23.1574C43.8427 23.0946 43.8913 23.0617 43.9359 23.049ZM47.5892 13.0783C49.1765 13.0783 50.4523 14.3585 50.4525 15.9533C50.4525 17.234 49.6239 18.3185 48.4525 18.6955L48.3422 18.7316V18.9016C48.3422 20.5349 47.0467 21.8019 45.3627 21.8019H38.7445C37.9985 21.8018 37.3907 21.5666 36.9711 21.1789C36.5522 20.7918 36.3099 20.2427 36.3099 19.593C36.31 18.5574 36.9484 17.7299 37.9056 17.4318L38.0062 17.4016L38.016 17.2971C38.2097 15.3703 39.8373 13.8674 41.7787 13.8674C42.8939 13.8674 43.8786 14.3365 44.5834 15.135L44.7699 15.3459L44.8539 15.0773C45.037 14.4962 45.401 13.9887 45.8929 13.6291C46.3236 13.3143 46.8328 13.1275 47.3617 13.0871L47.5892 13.0783ZM50.5277 18.8967C50.6589 18.7654 50.878 18.7667 51.014 18.8986V18.8976L51.9545 19.8391L51.9564 19.841C52.0871 19.9674 52.0892 20.1891 51.9545 20.3234V20.3244C51.8351 20.4438 51.6533 20.4594 51.5219 20.3732L51.4691 20.3303L50.5277 19.3947C50.4633 19.3279 50.4271 19.2385 50.4271 19.1457C50.4272 19.0528 50.4632 18.9634 50.5277 18.8967ZM47.3636 18.926C47.3635 19.9769 46.5097 20.8225 45.3812 20.8225H38.7201C38.2306 20.8224 37.8748 20.6827 37.6429 20.4709C37.412 20.2598 37.2885 19.9626 37.2885 19.6164C37.2885 19.3277 37.3738 19.0603 37.5551 18.8381C37.737 18.6152 38.0255 18.4272 38.4496 18.3146V18.3137C38.6113 18.27 38.7489 18.2051 38.8461 18.0871C38.9428 17.9695 38.9812 17.8217 38.9945 17.6545C39.1295 16.0069 40.3429 14.8459 41.7787 14.8459C42.894 14.8459 43.7679 15.4551 44.3148 16.5539V16.5549C44.3867 16.7021 44.4755 16.8199 44.6058 16.8957C44.734 16.9702 44.8832 16.9924 45.0511 16.9924C45.8078 16.9924 46.3854 17.2208 46.7719 17.5705C47.1579 17.92 47.3636 18.4001 47.3636 18.926ZM47.5892 13.6603C46.3357 13.6605 45.3416 14.6213 45.3021 15.8752L45.2972 16.0295L45.4515 16.0383C46.7883 16.1146 47.8348 16.8976 48.2035 18.0041L48.2562 18.1613L48.4115 18.1017C48.844 17.9338 49.2154 17.6379 49.476 17.2541C49.704 16.9181 49.8371 16.5282 49.8646 16.1252L49.8705 15.9523C49.8699 14.6673 48.8699 13.6603 47.5892 13.6603ZM47.5892 13.9777C48.6933 13.9777 49.553 14.8411 49.5531 15.9533V15.9543C49.5561 16.3539 49.4377 16.7457 49.2133 17.0764C49.0189 17.3625 48.7523 17.5902 48.4427 17.7404C48.0017 16.6317 46.9442 15.8639 45.6302 15.7355C45.7342 14.7276 46.557 13.9778 47.5892 13.9777ZM52.0912 15.6047H53.4125C53.5986 15.6048 53.7552 15.7585 53.7552 15.9533C53.7552 16.1482 53.5984 16.3018 53.4125 16.3019H52.0912C51.9027 16.3019 51.7417 16.1458 51.7416 15.9533C51.7416 15.7608 51.9025 15.6047 52.0912 15.6047ZM43.2172 11.5842C43.3536 11.4522 43.5719 11.451 43.7035 11.5822L44.6517 12.5305C44.7774 12.6623 44.776 12.8809 44.6498 13.0168C44.5227 13.1483 44.2885 13.1552 44.1488 13.0158L43.2191 12.0803C43.084 11.9398 43.0864 11.7173 43.2172 11.5842ZM51.4691 11.5812C51.5842 11.4665 51.7668 11.4534 51.9017 11.5402L51.9564 11.5842C52.0874 11.7168 52.0898 11.9397 51.9545 12.0803L51.0248 13.0158C50.8852 13.1553 50.6572 13.1485 50.5297 13.0168C50.414 12.8972 50.3987 12.715 50.4847 12.5832L50.5277 12.5305L51.4691 11.5812ZM47.5892 9.76874C47.7779 9.76874 47.9388 9.92588 47.9388 10.1184V11.4396C47.9388 11.6271 47.7769 11.7892 47.5892 11.7892C47.3943 11.7892 47.2338 11.6259 47.2338 11.4396V10.1184C47.2338 9.92724 47.393 9.76888 47.5892 9.76874ZM47.681 18.926C47.681 18.3141 47.4398 17.7471 46.9847 17.3351C46.5302 16.9238 45.8721 16.6751 45.0511 16.675C44.9075 16.675 44.8233 16.6552 44.765 16.6213C44.7089 16.5886 44.6564 16.5317 44.6 16.4162V16.4152L44.4847 16.1975C43.8866 15.1419 42.9571 14.5285 41.7787 14.5285C40.1564 14.5286 38.8248 15.8382 38.6781 17.6281V17.6291C38.6672 17.7669 38.6386 17.8391 38.601 17.885C38.5729 17.9191 38.5297 17.9509 38.4545 17.9797L38.3676 18.008C37.8929 18.134 37.5414 18.3521 37.309 18.6369C37.0762 18.9221 36.9721 19.2632 36.972 19.6164C36.972 20.0409 37.1239 20.4271 37.4281 20.7053C37.7313 20.9824 38.1706 21.1388 38.7201 21.1389L45.3812 21.1398C46.6745 21.1398 47.6809 20.1623 47.681 18.926Z" stroke="black" stroke-width="0.317178"/>
</g>
</svg>
