<svg width="68" height="65" viewBox="0 0 68 65" fill="none" xmlns="http://www.w3.org/2000/svg">
<path d="M0 8.5C0 4.08172 3.58172 0.5 8 0.5H60C64.4183 0.5 68 4.08172 68 8.5V56.5C68 60.9183 64.4183 64.5 60 64.5H8C3.58172 64.5 0 60.9183 0 56.5V8.5Z" fill="#FFD51D"/>
<path d="M18.1615 27.2563H26.4094L23.5073 21.8655L25.1537 21.7458L22.2854 16.9658L19.4183 21.7458L21.067 21.8632L18.1615 27.2563ZM27.1479 23.8653L29.2934 27.8503C29.386 28.0223 29.4324 28.2154 29.428 28.4106C29.4237 28.6059 29.3688 28.7967 29.2686 28.9644C29.1685 29.1321 29.0266 29.271 28.8568 29.3675C28.6869 29.4639 28.495 29.5147 28.2997 29.5148H23.4147V35.1609C23.4147 35.4604 23.2957 35.7476 23.0839 35.9594C22.8721 36.1711 22.5849 36.2901 22.2854 36.2901C21.9859 36.2901 21.6987 36.1711 21.487 35.9594C21.2752 35.7476 21.1562 35.4604 21.1562 35.1609V29.5148H16.2712C16.0759 29.5147 15.8839 29.4639 15.7141 29.3675C15.5443 29.271 15.4023 29.1321 15.3022 28.9644C15.2021 28.7967 15.1472 28.6059 15.1429 28.4106C15.1385 28.2154 15.1849 28.0223 15.2775 27.8503L17.423 23.8653L16.61 23.4283C16.4711 23.2488 16.3898 23.0316 16.3767 22.805C16.3636 22.5785 16.4193 22.3533 16.5366 22.159L21.3177 14.1901C21.4181 14.0232 21.56 13.885 21.7295 13.7891C21.8991 13.6932 22.0906 13.6428 22.2854 13.6428C22.4803 13.6428 22.6718 13.6932 22.8413 13.7891C23.0109 13.885 23.1528 14.0232 23.2532 14.1901L28.0343 22.159C28.1508 22.3533 28.2063 22.5781 28.1934 22.8042C28.1805 23.0304 28.0999 23.2474 27.962 23.4272L27.1479 23.8653Z" fill="black"/>
<path fill-rule="evenodd" clip-rule="evenodd" d="M35.5352 26.5548C36.2938 26.7716 36.7331 27.5623 36.5163 28.3209L30.8021 48.3209C30.5853 49.0795 29.7946 49.5188 29.036 49.3021C28.2774 49.0853 27.8381 48.2946 28.0548 47.536L33.7691 27.536C33.9859 26.7774 34.7766 26.3381 35.5352 26.5548ZM46.1789 26.5548C46.9375 26.3381 47.7282 26.7774 47.9449 27.536L53.6592 47.536C53.876 48.2946 53.4367 49.0853 52.6781 49.3021C51.9194 49.5188 51.1287 49.0795 50.912 48.3209L45.1977 28.3209C44.981 27.5623 45.4202 26.7716 46.1789 26.5548ZM40.857 27.9285C41.646 27.9285 42.2856 28.568 42.2856 29.357V32.2142C42.2856 33.0031 41.646 33.6427 40.857 33.6427C40.068 33.6427 39.4285 33.0031 39.4285 32.2142V29.357C39.4285 28.568 40.068 27.9285 40.857 27.9285ZM40.857 35.0713C41.646 35.0713 42.2856 35.7109 42.2856 36.4999V39.357C42.2856 40.146 41.646 40.7856 40.857 40.7856C40.068 40.7856 39.4285 40.146 39.4285 39.357V36.4999C39.4285 35.7109 40.068 35.0713 40.857 35.0713ZM40.857 42.2142C41.646 42.2142 42.2856 42.8538 42.2856 43.6427V46.4999C42.2856 47.2889 41.646 47.9285 40.857 47.9285C40.068 47.9285 39.4285 47.2889 39.4285 46.4999V43.6427C39.4285 42.8538 40.068 42.2142 40.857 42.2142Z" fill="black"/>
<path fill-rule="evenodd" clip-rule="evenodd" d="M52.8571 11.9286H15.1428C13.2492 11.9286 11.7142 13.4636 11.7142 15.3571V49.6429C11.7142 51.5364 13.2492 53.0714 15.1428 53.0714H52.8571C54.7506 53.0714 56.2856 51.5364 56.2856 49.6429V15.3571C56.2856 13.4636 54.7506 11.9286 52.8571 11.9286ZM15.1428 8.5C11.3557 8.5 8.28564 11.57 8.28564 15.3571V49.6429C8.28564 53.43 11.3557 56.5 15.1428 56.5H52.8571C56.6442 56.5 59.7142 53.43 59.7142 49.6429V15.3571C59.7142 11.57 56.6442 8.5 52.8571 8.5H15.1428Z" fill="black"/>
</svg>
