<svg width="68" height="65" viewBox="0 0 68 65" fill="none" xmlns="http://www.w3.org/2000/svg">
<path d="M0 8.5C0 4.08172 3.58172 0.5 8 0.5H60C64.4183 0.5 68 4.08172 68 8.5V56.5C68 60.9183 64.4183 64.5 60 64.5H8C3.58172 64.5 0 60.9183 0 56.5V8.5Z" fill="#FFD51D"/>
<path d="M26.5707 23.0883H32.9857L30.7285 18.8954L32.0091 18.8023L29.7782 15.0845L27.5483 18.8023L28.8305 18.8936L26.5707 23.0883ZM33.5601 20.4508L35.2288 23.5503C35.3008 23.684 35.3369 23.8342 35.3336 23.9861C35.3302 24.138 35.2875 24.2864 35.2096 24.4168C35.1317 24.5472 35.0213 24.6552 34.8893 24.7303C34.7572 24.8053 34.6079 24.8448 34.4559 24.8449H30.6565V29.2363C30.6565 29.4692 30.564 29.6926 30.3993 29.8573C30.2345 30.022 30.0111 30.1146 29.7782 30.1146C29.5453 30.1146 29.3219 30.022 29.1572 29.8573C28.9925 29.6926 28.8999 29.4692 28.8999 29.2363V24.8449H25.1005C24.9486 24.8448 24.7993 24.8053 24.6672 24.7303C24.5351 24.6552 24.4247 24.5472 24.3468 24.4168C24.269 24.2864 24.2262 24.138 24.2229 23.9861C24.2195 23.8342 24.2556 23.684 24.3276 23.5503L25.9963 20.4508L25.364 20.1109C25.256 19.9713 25.1927 19.8024 25.1825 19.6262C25.1724 19.45 25.2157 19.2748 25.3069 19.1237L29.0255 12.9257C29.1036 12.7958 29.214 12.6884 29.3458 12.6138C29.4777 12.5392 29.6267 12.5 29.7782 12.5C29.9297 12.5 30.0787 12.5392 30.2106 12.6138C30.3425 12.6884 30.4528 12.7958 30.5309 12.9257L34.2495 19.1237C34.3402 19.2748 34.3833 19.4496 34.3733 19.6255C34.3632 19.8014 34.3006 19.9702 34.1933 20.11L33.5601 20.4508Z" fill="black"/>
<path fill-rule="evenodd" clip-rule="evenodd" d="M40.0833 22.5428C40.6733 22.7114 41.015 23.3264 40.8464 23.9164L36.4019 39.472C36.2333 40.062 35.6184 40.4037 35.0283 40.2351C34.4383 40.0665 34.0966 39.4515 34.2652 38.8615L38.7097 23.3059C38.8782 22.7159 39.4932 22.3742 40.0833 22.5428ZM48.3617 22.5428C48.9517 22.3742 49.5667 22.7159 49.7353 23.3059L54.1797 38.8615C54.3483 39.4515 54.0066 40.0665 53.4166 40.2351C52.8266 40.4037 52.2116 40.062 52.043 39.472L47.5985 23.9164C47.43 23.3264 47.7716 22.7114 48.3617 22.5428ZM44.2225 23.6112C44.8361 23.6112 45.3336 24.1086 45.3336 24.7223V26.9445C45.3336 27.5581 44.8361 28.0556 44.2225 28.0556C43.6088 28.0556 43.1113 27.5581 43.1113 26.9445V24.7223C43.1113 24.1086 43.6088 23.6112 44.2225 23.6112ZM44.2225 29.1667C44.8361 29.1667 45.3336 29.6642 45.3336 30.2778V32.5C45.3336 33.1137 44.8361 33.6112 44.2225 33.6112C43.6088 33.6112 43.1113 33.1137 43.1113 32.5V30.2778C43.1113 29.6642 43.6088 29.1667 44.2225 29.1667ZM44.2225 34.7223C44.8361 34.7223 45.3336 35.2197 45.3336 35.8334V38.0556C45.3336 38.6692 44.8361 39.1667 44.2225 39.1667C43.6088 39.1667 43.1113 38.6692 43.1113 38.0556V35.8334C43.1113 35.2197 43.6088 34.7223 44.2225 34.7223Z" fill="black"/>
<path fill-rule="evenodd" clip-rule="evenodd" d="M53.5558 11.1667H24.2225C22.7497 11.1667 21.5558 12.3606 21.5558 13.8333V40.5C21.5558 41.9728 22.7497 43.1667 24.2225 43.1667H53.5558C55.0286 43.1667 56.2225 41.9728 56.2225 40.5V13.8333C56.2225 12.3606 55.0286 11.1667 53.5558 11.1667ZM24.2225 8.5C21.277 8.5 18.8892 10.8878 18.8892 13.8333V40.5C18.8892 43.4455 21.277 45.8333 24.2225 45.8333H53.5558C56.5013 45.8333 58.8892 43.4455 58.8892 40.5V13.8333C58.8892 10.8878 56.5013 8.5 53.5558 8.5H24.2225Z" fill="black"/>
<path fill-rule="evenodd" clip-rule="evenodd" d="M48.2223 48.5001H18.889C17.4162 48.5001 16.2223 47.3062 16.2223 45.8334V19.1667H13.5557V45.8334C13.5557 48.7789 15.9435 51.1667 18.889 51.1667H48.2223V48.5001Z" fill="black"/>
<path fill-rule="evenodd" clip-rule="evenodd" d="M42.8888 53.8333H13.5555C12.0827 53.8333 10.8888 52.6394 10.8888 51.1667V24.5H8.22217V51.1667C8.22217 54.1122 10.61 56.5 13.5555 56.5H42.8888V53.8333Z" fill="black"/>
</svg>
